HIERARCHY
ROOT root
{
	OFFSET	0	13.1	24.9
	CHANNELS 6  Xposition Yposition Zposition Xrotation Yrotation Zrotation
	JOINT spine_1
	{
		OFFSET	0	9.99999	0
		CHANNELS 3  Xrotation Yrotation Zrotation
		JOINT spine_2
		{
			OFFSET	0	112	-10
			CHANNELS 3  Xrotation Yrotation Zrotation
			JOINT spine_3
			{
				OFFSET	0	206.5	19.3
				CHANNELS 3  Xrotation Yrotation Zrotation
				JOINT spine_4
				{
					OFFSET	0	110.4	14.6
					CHANNELS 3  Xrotation Yrotation Zrotation
					JOINT neck_1
					{
						OFFSET	0	71.8	-50.3
						CHANNELS 3  Xrotation Yrotation Zrotation
						JOINT neck_2
						{
							OFFSET	0	86.2	-25.8
							CHANNELS 3  Xrotation Yrotation Zrotation
							JOINT head_ee
							{
								OFFSET	0	179.8	-8.7
								CHANNELS 3  Xrotation Yrotation Zrotation
								End Site
								{
									OFFSET	1	0	0
								}
							}
						}
					}
					JOINT left_clavicle
					{
						OFFSET	-43.2	22.4	-70.8
						CHANNELS 3  Xrotation Yrotation Zrotation
						JOINT left_shoulder
						{
							OFFSET	-93.9	-5.79999	48.7
							CHANNELS 3  Xrotation Yrotation Zrotation
							JOINT left_elbow
							{
								OFFSET	-291.4	-30.8	15.2
								CHANNELS 3  Xrotation Yrotation Zrotation
								JOINT left_lowarm_twist
								{
									OFFSET	-110.7	-3.89999	13.6
									CHANNELS 3  Xrotation Yrotation Zrotation
									JOINT left_hand
									{
										OFFSET	-110.7	-3.89999	13.6
										CHANNELS 3  Xrotation Yrotation Zrotation
										JOINT left_ee
										{
											OFFSET	-80.8	-5.10001	12.1
											CHANNELS 3  Xrotation Yrotation Zrotation
											End Site
											{
												OFFSET	1	0	0
											}
										}
									}
								}
							}
						}
					}
					JOINT right_clavicle
					{
						OFFSET	43.2	22.4	-70.8
						CHANNELS 3  Xrotation Yrotation Zrotation
						JOINT right_shoulder
						{
							OFFSET	93.9	-5.79999	48.7
							CHANNELS 3  Xrotation Yrotation Zrotation
							JOINT right_elbow
							{
								OFFSET	291.4	-30.8	15.2
								CHANNELS 3  Xrotation Yrotation Zrotation
								JOINT right_lowarm_twist
								{
									OFFSET	110.7	-3.89999	13.6
									CHANNELS 3  Xrotation Yrotation Zrotation
									JOINT right_hand
									{
										OFFSET	110.7	-3.89999	13.6
										CHANNELS 3  Xrotation Yrotation Zrotation
										JOINT right_ee
										{
											OFFSET	80.8	-5.10001	12.1
											CHANNELS 3  Xrotation Yrotation Zrotation
											End Site
											{
												OFFSET	1	0	0
											}
										}
									}
								}
							}
						}
					}
				}
			}
		}
	}
	JOINT left_hip
	{
		OFFSET	-82.8	-127.5	0.300001
		CHANNELS 3  Xrotation Yrotation Zrotation
		JOINT left_knee
		{
			OFFSET	-28.2	-396.7	2.2
			CHANNELS 3  Xrotation Yrotation Zrotation
			JOINT left_ankle
			{
				OFFSET	-11.7	-411.3	35.4
				CHANNELS 3  Xrotation Yrotation Zrotation
				JOINT left_toes
				{
					OFFSET	0	-60	-88.6
					CHANNELS 3  Xrotation Yrotation Zrotation
					JOINT left_foot_ee
					{
						OFFSET	-22.5	-16.5	-42.2
						CHANNELS 3  Xrotation Yrotation Zrotation
						End Site
						{
							OFFSET	1	0	0
						}
					}
				}
			}
		}
	}
	JOINT right_hip
	{
		OFFSET	82.8	-127.5	0.300001
		CHANNELS 3  Xrotation Yrotation Zrotation
		JOINT right_knee
		{
			OFFSET	28.2	-396.7	2.2
			CHANNELS 3  Xrotation Yrotation Zrotation
			JOINT right_ankle
			{
				OFFSET	11.7	-411.3	35.4
				CHANNELS 3  Xrotation Yrotation Zrotation
				JOINT right_toes
				{
					OFFSET	0	-60	-88.6
					CHANNELS 3  Xrotation Yrotation Zrotation
					JOINT right_foot_ee
					{
						OFFSET	22.5	-16.5	-42.2
						CHANNELS 3  Xrotation Yrotation Zrotation
						End Site
						{
							OFFSET	1	0	0
						}
					}
				}
			}
		}
	}
}
MOTION
Frames: 5
Frame Time: 0.02
1078.93583969 769.03 -1506.82586259 134.329048079 83.9476913057 -135.895373503 -0.427099 0.0347499 0.701295 -0.426826 -0.0099447 0.702085 -0.426801 -0.162385 0.683121 -0.427448 -0.0524638 0.700193 -15.3571 4.17144 -2.31904 -15.4215 9.34651 -0.775542 -0.0 0.0 -0.0 4.01035 21.4174 8.24309 -10.0757 -18.8673 69.3217 0.189772 -5.37057 0.0089006 -15.9439 -0.826005 1.85728 -1.08881 21.0605 2.04319 -0.0 0.0 -0.0 10.6396 -6.2094 -20.4884 10.6701 0.779729 -65.6502 1.40248 34.7875 -0.439361 -64.1318 5.80061 -5.21112 6.36024 -23.7079 -55.7616 0.0 0.0 0.0 17.0176 -4.72504 -0.052047 -48.5546 -1.09863 7.15138 -23.7053 27.7443 3.7734 -40.1785 0.0 0.0 -0.0 0.0 -0.0 3.26132 10.1479 -0.380885 -3.39445 -0.124801 -0.505916 14.7036 -3.73135 2.05829 -14.3542 0.0 0.0 0.0 0.0 0.0 
1074.13291781 768.958 -1512.02124426 125.21942667 84.8283816564 -126.860378375 -0.498138 0.0327933 0.764094 -0.497813 -0.015893 0.764632 -0.497847 -0.182716 0.742652 -0.498612 -0.0631385 0.762187 -15.5306 4.15351 -2.30092 -15.5962 9.29792 -0.750459 -0.0 0.0 -0.0 4.0469 21.7139 8.29477 -10.4209 -18.4209 68.722 0.185541 -5.25153 0.00850897 -16.2543 -0.847119 1.89094 -1.21809 23.5065 2.35946 -0.0 0.0 -0.0 10.5308 -4.53301 -20.4288 11.86 1.64922 -65.1063 1.57445 37.9492 -0.541374 -62.5587 5.60257 -5.17368 6.37299 -23.685 -55.9081 0.0 0.0 0.0 18.996 -6.62645 0.798606 -48.7049 -1.11126 7.17077 -21.8309 26.5316 3.44951 -40.1811 0.0 0.0 -0.0 0.0 -0.0 3.32627 10.3501 -0.3289 -3.32579 -0.122575 -0.495614 14.2259 -6.96991 1.99087 -13.9096 0.0 0.0 0.0 0.0 0.0 
1073.82094799 768.958 -1509.4011641 129.515177546 84.5225011319 -131.174712779 -0.498138 0.0327933 0.764094 -0.497813 -0.015893 0.764632 -0.497847 -0.182716 0.742652 -0.498612 -0.0631385 0.762187 -15.5306 4.15351 -2.30092 -15.5962 9.29792 -0.750459 -0.0 0.0 -0.0 4.0469 21.7139 8.29477 -10.4209 -18.4209 68.722 0.185541 -5.25153 0.00850897 -16.2543 -0.847119 1.89094 -1.21809 23.5065 2.35946 -0.0 0.0 -0.0 10.5308 -4.53301 -20.4288 11.86 1.64922 -65.1063 1.57445 37.9492 -0.541374 -62.5587 5.60257 -5.17368 6.37299 -23.685 -55.9081 0.0 0.0 0.0 18.996 -6.62645 0.798606 -48.7049 -1.11126 7.17077 -21.8309 26.5316 3.44951 -40.1811 0.0 0.0 -0.0 0.0 -0.0 3.32627 10.3501 -0.3289 -3.32579 -0.122575 -0.495614 14.2259 -6.96991 1.99087 -13.9096 0.0 0.0 0.0 0.0 0.0 
1055.9202159 767.56 -1511.1268159 137.99135125 85.6900278288 -139.912655668 -0.72812 0.163139 0.910989 -0.727664 0.104842 0.919523 -0.725635 -0.102423 0.919796 -0.726813 0.0441209 0.924428 -11.946 4.36638 -1.35517 -11.9839 9.15041 -0.0759769 -0.0 0.0 -0.0 4.07634 22.6719 8.33065 -11.6769 -17.6547 67.4262 0.207216 -5.86095 0.0106077 -16.3463 -0.85341 1.90089 -1.30861 28.2173 3.91025 -0.0 0.0 -0.0 10.8254 -0.912697 -21.3121 13.2153 2.94331 -63.8172 1.92378 43.6163 -0.769834 -58.7412 5.12662 -5.06027 5.99869 -21.7474 -51.652 0.0 0.0 0.0 22.8149 -5.48076 1.09515 -39.7333 -0.44989 5.96093 -18.1788 26.0215 2.86024 -40.1682 0.0 0.0 -0.0 0.0 -0.0 4.44107 10.5706 -0.104159 -4.63099 -0.162778 -0.691885 17.7707 -9.6137 2.4526 -12.6109 0.0 0.0 0.0 0.0 0.0 
1046.35900414 768.292 -1510.52257439 142.280022978 85.7624781523 -144.415281377 -0.776201 0.181536 1.02026 -0.775629 0.11625 1.02975 -0.773097 -0.116685 1.0297 -0.774574 0.0473915 1.0352 -11.3286 3.85307 -1.4716 -11.3525 8.25164 -0.378253 -0.0 0.0 -0.0 4.10991 24.0535 8.3632 -12.2776 -18.9626 66.1777 0.231082 -6.53046 0.0131835 -16.6232 -0.872448 1.93079 -1.08708 28.3024 5.14868 -0.0 0.0 -0.0 10.8814 1.4336 -21.5716 12.5913 3.05156 -63.4795 2.0493 45.4258 -0.857858 -57.4214 4.96392 -5.01369 5.15124 -20.5981 -43.4918 0.0 0.0 0.0 24.7018 -5.26103 0.656144 -34.1728 -0.138247 5.16565 -4.49784 26.4937 0.698504 -39.085 0.0 0.0 -0.0 0.0 -0.0 3.82572 10.6356 0.0402087 -4.9352 -0.171505 -0.737756 20.3496 -5.64472 2.77481 -12.2673 0.0 0.0 0.0 0.0 0.0 
